solid block3
 facet normal -1 0 0
  outer loop
   vertex 40.3 49.1 2.95
   vertex 40.3 33.7 2.95
   vertex 40.3 34.7 3.95
  endloop
 endfacet
 facet normal -1 -0 -0
  outer loop
   vertex 40.3 48.1 3.95
   vertex 40.3 49.1 2.95
   vertex 40.3 34.7 3.95
  endloop
 endfacet
 facet normal -1 0 0
  outer loop
   vertex 40.3 49.1 2.95
   vertex 40.3 48.1 3.95
   vertex 40.3 48.1 17.35
  endloop
 endfacet
 facet normal -1 0 0
  outer loop
   vertex 40.3 49.1 2.95
   vertex 40.3 48.1 17.35
   vertex 40.3 49.1 18.35
  endloop
 endfacet
 facet normal -1 0 0
  outer loop
   vertex 40.3 48.1 17.35
   vertex 40.3 34.7 17.35
   vertex 40.3 33.7 18.35
  endloop
 endfacet
 facet normal -1 -0 0
  outer loop
   vertex 40.3 49.1 18.35
   vertex 40.3 48.1 17.35
   vertex 40.3 33.7 18.35
  endloop
 endfacet
 facet normal -1 -0 0
  outer loop
   vertex 40.3 34.7 3.95
   vertex 40.3 33.7 2.95
   vertex 40.3 33.7 18.35
  endloop
 endfacet
 facet normal -1 -0 -0
  outer loop
   vertex 40.3 34.7 17.35
   vertex 40.3 34.7 3.95
   vertex 40.3 33.7 18.35
  endloop
 endfacet
 facet normal 0 -1 0
  outer loop
   vertex 40.3 33.7 2.95
   vertex 42.7 33.7 2.95
   vertex 42.7 33.7 18.35
  endloop
 endfacet
 facet normal 0 -1 0
  outer loop
   vertex 40.3 33.7 18.35
   vertex 40.3 33.7 2.95
   vertex 42.7 33.7 18.35
  endloop
 endfacet
 facet normal 0 0 1
  outer loop
   vertex 40.3 49.1 18.35
   vertex 40.3 33.7 18.35
   vertex 42.7 33.7 18.35
  endloop
 endfacet
 facet normal 0 0 1
  outer loop
   vertex 42.7 49.1 18.35
   vertex 40.3 49.1 18.35
   vertex 42.7 33.7 18.35
  endloop
 endfacet
 facet normal 0 0 -1
  outer loop
   vertex 42.7 33.7 2.95
   vertex 40.3 33.7 2.95
   vertex 40.3 49.1 2.95
  endloop
 endfacet
 facet normal 0 0 -1
  outer loop
   vertex 42.7 33.7 2.95
   vertex 40.3 49.1 2.95
   vertex 42.7 49.1 2.95
  endloop
 endfacet
 facet normal 0 1 0
  outer loop
   vertex 42.7 49.1 18.35
   vertex 42.7 49.1 2.95
   vertex 40.3 49.1 2.95
  endloop
 endfacet
 facet normal 0 1 0
  outer loop
   vertex 42.7 49.1 18.35
   vertex 40.3 49.1 2.95
   vertex 40.3 49.1 18.35
  endloop
 endfacet
 facet normal 0 1 0
  outer loop
   vertex 42.7 34.7 17.35
   vertex 42.7 34.7 3.95
   vertex 40.3 34.7 3.95
  endloop
 endfacet
 facet normal 0 1 0
  outer loop
   vertex 42.7 34.7 17.35
   vertex 40.3 34.7 3.95
   vertex 40.3 34.7 17.35
  endloop
 endfacet
 facet normal 0 0 1
  outer loop
   vertex 42.7 48.1 3.95
   vertex 40.3 48.1 3.95
   vertex 40.3 34.7 3.95
  endloop
 endfacet
 facet normal 0 0 1
  outer loop
   vertex 42.7 48.1 3.95
   vertex 40.3 34.7 3.95
   vertex 42.7 34.7 3.95
  endloop
 endfacet
 facet normal 0 -1 0
  outer loop
   vertex 40.3 48.1 3.95
   vertex 42.7 48.1 3.95
   vertex 42.7 48.1 17.35
  endloop
 endfacet
 facet normal 0 -1 0
  outer loop
   vertex 40.3 48.1 17.35
   vertex 40.3 48.1 3.95
   vertex 42.7 48.1 17.35
  endloop
 endfacet
 facet normal 0 0 -1
  outer loop
   vertex 40.3 34.7 17.35
   vertex 40.3 48.1 17.35
   vertex 42.7 48.1 17.35
  endloop
 endfacet
 facet normal 0 0 -1
  outer loop
   vertex 42.7 34.7 17.35
   vertex 40.3 34.7 17.35
   vertex 42.7 48.1 17.35
  endloop
 endfacet
 facet normal 1 0 0
  outer loop
   vertex 42.7 34.7 3.95
   vertex 42.7 33.7 2.95
   vertex 42.7 49.1 2.95
  endloop
 endfacet
 facet normal 1 -0 0
  outer loop
   vertex 42.7 34.7 3.95
   vertex 42.7 49.1 2.95
   vertex 42.7 48.1 3.95
  endloop
 endfacet
 facet normal 1 -0 0
  outer loop
   vertex 42.7 48.1 17.35
   vertex 42.7 49.1 2.95
   vertex 42.7 49.1 18.35
  endloop
 endfacet
 facet normal 1 0 0
  outer loop
   vertex 42.7 48.1 17.35
   vertex 42.7 48.1 3.95
   vertex 42.7 49.1 2.95
  endloop
 endfacet
 facet normal 1 0 0
  outer loop
   vertex 42.7 33.7 18.35
   vertex 42.7 34.7 17.35
   vertex 42.7 48.1 17.35
  endloop
 endfacet
 facet normal 1 -0 0
  outer loop
   vertex 42.7 33.7 18.35
   vertex 42.7 48.1 17.35
   vertex 42.7 49.1 18.35
  endloop
 endfacet
 facet normal 1 0 0
  outer loop
   vertex 42.7 33.7 18.35
   vertex 42.7 33.7 2.95
   vertex 42.7 34.7 3.95
  endloop
 endfacet
 facet normal 1 0 0
  outer loop
   vertex 42.7 33.7 18.35
   vertex 42.7 34.7 3.95
   vertex 42.7 34.7 17.35
  endloop
 endfacet
 facet normal -1 0 -0
  outer loop
   vertex 40.3 112.25 81.5
   vertex 40.3 112.25 66.1
   vertex 40.3 111.25 80.5
  endloop
 endfacet
 facet normal -1 0 0
  outer loop
   vertex 40.3 112.25 66.1
   vertex 40.3 111.25 67.1
   vertex 40.3 111.25 80.5
  endloop
 endfacet
 facet normal -1 0 0
  outer loop
   vertex 40.3 112.25 66.1
   vertex 40.3 96.85 66.1
   vertex 40.3 97.85 67.1
  endloop
 endfacet
 facet normal -1 -0 -0
  outer loop
   vertex 40.3 111.25 67.1
   vertex 40.3 112.25 66.1
   vertex 40.3 97.85 67.1
  endloop
 endfacet
 facet normal -1 0 0
  outer loop
   vertex 40.3 111.25 80.5
   vertex 40.3 97.85 80.5
   vertex 40.3 96.85 81.5
  endloop
 endfacet
 facet normal -1 -0 0
  outer loop
   vertex 40.3 112.25 81.5
   vertex 40.3 111.25 80.5
   vertex 40.3 96.85 81.5
  endloop
 endfacet
 facet normal -1 -0 0
  outer loop
   vertex 40.3 97.85 67.1
   vertex 40.3 96.85 66.1
   vertex 40.3 96.85 81.5
  endloop
 endfacet
 facet normal -1 -0 -0
  outer loop
   vertex 40.3 97.85 80.5
   vertex 40.3 97.85 67.1
   vertex 40.3 96.85 81.5
  endloop
 endfacet
 facet normal 0 -1 0
  outer loop
   vertex 40.3 96.85 66.1
   vertex 42.7 96.85 66.1
   vertex 40.3 96.85 81.5
  endloop
 endfacet
 facet normal 0 -1 0
  outer loop
   vertex 40.3 96.85 81.5
   vertex 42.7 96.85 66.1
   vertex 42.7 96.85 81.5
  endloop
 endfacet
 facet normal 0 0 1
  outer loop
   vertex 40.3 112.25 81.5
   vertex 40.3 96.85 81.5
   vertex 42.7 96.85 81.5
  endloop
 endfacet
 facet normal 0 0 1
  outer loop
   vertex 42.7 112.25 81.5
   vertex 40.3 112.25 81.5
   vertex 42.7 96.85 81.5
  endloop
 endfacet
 facet normal 0 0 -1
  outer loop
   vertex 42.7 96.85 66.1
   vertex 40.3 96.85 66.1
   vertex 40.3 112.25 66.1
  endloop
 endfacet
 facet normal 0 0 -1
  outer loop
   vertex 42.7 96.85 66.1
   vertex 40.3 112.25 66.1
   vertex 42.7 112.25 66.1
  endloop
 endfacet
 facet normal 0 1 0
  outer loop
   vertex 40.3 112.25 81.5
   vertex 42.7 112.25 66.1
   vertex 40.3 112.25 66.1
  endloop
 endfacet
 facet normal 0 1 0
  outer loop
   vertex 42.7 112.25 81.5
   vertex 42.7 112.25 66.1
   vertex 40.3 112.25 81.5
  endloop
 endfacet
 facet normal 0 1 0
  outer loop
   vertex 42.7 97.85 80.5
   vertex 42.7 97.85 67.1
   vertex 40.3 97.85 67.1
  endloop
 endfacet
 facet normal 0 1 0
  outer loop
   vertex 42.7 97.85 80.5
   vertex 40.3 97.85 67.1
   vertex 40.3 97.85 80.5
  endloop
 endfacet
 facet normal 0 0 1
  outer loop
   vertex 42.7 111.25 67.1
   vertex 40.3 111.25 67.1
   vertex 40.3 97.85 67.1
  endloop
 endfacet
 facet normal 0 0 1
  outer loop
   vertex 42.7 111.25 67.1
   vertex 40.3 97.85 67.1
   vertex 42.7 97.85 67.1
  endloop
 endfacet
 facet normal 0 -1 0
  outer loop
   vertex 40.3 111.25 67.1
   vertex 42.7 111.25 67.1
   vertex 42.7 111.25 80.5
  endloop
 endfacet
 facet normal 0 -1 0
  outer loop
   vertex 40.3 111.25 80.5
   vertex 40.3 111.25 67.1
   vertex 42.7 111.25 80.5
  endloop
 endfacet
 facet normal 0 0 -1
  outer loop
   vertex 40.3 97.85 80.5
   vertex 40.3 111.25 80.5
   vertex 42.7 111.25 80.5
  endloop
 endfacet
 facet normal 0 0 -1
  outer loop
   vertex 42.7 97.85 80.5
   vertex 40.3 97.85 80.5
   vertex 42.7 111.25 80.5
  endloop
 endfacet
 facet normal 1 -0 0
  outer loop
   vertex 42.7 111.25 80.5
   vertex 42.7 112.25 66.1
   vertex 42.7 112.25 81.5
  endloop
 endfacet
 facet normal 1 0 0
  outer loop
   vertex 42.7 111.25 80.5
   vertex 42.7 111.25 67.1
   vertex 42.7 112.25 66.1
  endloop
 endfacet
 facet normal 1 0 0
  outer loop
   vertex 42.7 97.85 67.1
   vertex 42.7 96.85 66.1
   vertex 42.7 112.25 66.1
  endloop
 endfacet
 facet normal 1 -0 0
  outer loop
   vertex 42.7 97.85 67.1
   vertex 42.7 112.25 66.1
   vertex 42.7 111.25 67.1
  endloop
 endfacet
 facet normal 1 0 0
  outer loop
   vertex 42.7 96.85 81.5
   vertex 42.7 97.85 80.5
   vertex 42.7 111.25 80.5
  endloop
 endfacet
 facet normal 1 -0 0
  outer loop
   vertex 42.7 96.85 81.5
   vertex 42.7 111.25 80.5
   vertex 42.7 112.25 81.5
  endloop
 endfacet
 facet normal 1 0 0
  outer loop
   vertex 42.7 96.85 81.5
   vertex 42.7 96.85 66.1
   vertex 42.7 97.85 67.1
  endloop
 endfacet
 facet normal 1 0 0
  outer loop
   vertex 42.7 96.85 81.5
   vertex 42.7 97.85 67.1
   vertex 42.7 97.85 80.5
  endloop
 endfacet
 facet normal -1 0 0
  outer loop
   vertex 40.3 49.1 96.85
   vertex 40.3 48.1 97.85
   vertex 40.3 49.1 112.25
  endloop
 endfacet
 facet normal -1 0 0
  outer loop
   vertex 40.3 49.1 112.25
   vertex 40.3 48.1 97.85
   vertex 40.3 48.1 111.25
  endloop
 endfacet
 facet normal -1 0 0
  outer loop
   vertex 40.3 49.1 96.85
   vertex 40.3 33.7 96.85
   vertex 40.3 34.7 97.85
  endloop
 endfacet
 facet normal -1 -0 -0
  outer loop
   vertex 40.3 48.1 97.85
   vertex 40.3 49.1 96.85
   vertex 40.3 34.7 97.85
  endloop
 endfacet
 facet normal -1 0 0
  outer loop
   vertex 40.3 48.1 111.25
   vertex 40.3 34.7 111.25
   vertex 40.3 33.7 112.25
  endloop
 endfacet
 facet normal -1 -0 0
  outer loop
   vertex 40.3 49.1 112.25
   vertex 40.3 48.1 111.25
   vertex 40.3 33.7 112.25
  endloop
 endfacet
 facet normal -1 -0 0
  outer loop
   vertex 40.3 34.7 97.85
   vertex 40.3 33.7 96.85
   vertex 40.3 33.7 112.25
  endloop
 endfacet
 facet normal -1 -0 -0
  outer loop
   vertex 40.3 34.7 111.25
   vertex 40.3 34.7 97.85
   vertex 40.3 33.7 112.25
  endloop
 endfacet
 facet normal 0 -1 0
  outer loop
   vertex 40.3 33.7 96.85
   vertex 42.7 33.7 96.85
   vertex 40.3 33.7 112.25
  endloop
 endfacet
 facet normal 0 -1 0
  outer loop
   vertex 40.3 33.7 112.25
   vertex 42.7 33.7 96.85
   vertex 42.7 33.7 112.25
  endloop
 endfacet
 facet normal 0 0 1
  outer loop
   vertex 40.3 49.1 112.25
   vertex 40.3 33.7 112.25
   vertex 42.7 33.7 112.25
  endloop
 endfacet
 facet normal 0 0 1
  outer loop
   vertex 42.7 49.1 112.25
   vertex 40.3 49.1 112.25
   vertex 42.7 33.7 112.25
  endloop
 endfacet
 facet normal 0 0 -1
  outer loop
   vertex 42.7 33.7 96.85
   vertex 40.3 33.7 96.85
   vertex 40.3 49.1 96.85
  endloop
 endfacet
 facet normal 0 0 -1
  outer loop
   vertex 42.7 33.7 96.85
   vertex 40.3 49.1 96.85
   vertex 42.7 49.1 96.85
  endloop
 endfacet
 facet normal 0 1 0
  outer loop
   vertex 40.3 49.1 112.25
   vertex 42.7 49.1 96.85
   vertex 40.3 49.1 96.85
  endloop
 endfacet
 facet normal 0 1 0
  outer loop
   vertex 42.7 49.1 112.25
   vertex 42.7 49.1 96.85
   vertex 40.3 49.1 112.25
  endloop
 endfacet
 facet normal 0 1 0
  outer loop
   vertex 42.7 34.7 111.25
   vertex 42.7 34.7 97.85
   vertex 40.3 34.7 97.85
  endloop
 endfacet
 facet normal 0 1 0
  outer loop
   vertex 42.7 34.7 111.25
   vertex 40.3 34.7 97.85
   vertex 40.3 34.7 111.25
  endloop
 endfacet
 facet normal 0 0 1
  outer loop
   vertex 42.7 48.1 97.85
   vertex 40.3 48.1 97.85
   vertex 40.3 34.7 97.85
  endloop
 endfacet
 facet normal 0 0 1
  outer loop
   vertex 42.7 48.1 97.85
   vertex 40.3 34.7 97.85
   vertex 42.7 34.7 97.85
  endloop
 endfacet
 facet normal 0 -1 0
  outer loop
   vertex 40.3 48.1 97.85
   vertex 42.7 48.1 97.85
   vertex 42.7 48.1 111.25
  endloop
 endfacet
 facet normal 0 -1 0
  outer loop
   vertex 40.3 48.1 111.25
   vertex 40.3 48.1 97.85
   vertex 42.7 48.1 111.25
  endloop
 endfacet
 facet normal 0 0 -1
  outer loop
   vertex 40.3 34.7 111.25
   vertex 40.3 48.1 111.25
   vertex 42.7 48.1 111.25
  endloop
 endfacet
 facet normal 0 0 -1
  outer loop
   vertex 42.7 34.7 111.25
   vertex 40.3 34.7 111.25
   vertex 42.7 48.1 111.25
  endloop
 endfacet
 facet normal 1 0 0
  outer loop
   vertex 42.7 49.1 112.25
   vertex 42.7 48.1 97.85
   vertex 42.7 49.1 96.85
  endloop
 endfacet
 facet normal 1 -0 0
  outer loop
   vertex 42.7 48.1 111.25
   vertex 42.7 48.1 97.85
   vertex 42.7 49.1 112.25
  endloop
 endfacet
 facet normal 1 0 0
  outer loop
   vertex 42.7 34.7 97.85
   vertex 42.7 33.7 96.85
   vertex 42.7 49.1 96.85
  endloop
 endfacet
 facet normal 1 -0 0
  outer loop
   vertex 42.7 34.7 97.85
   vertex 42.7 49.1 96.85
   vertex 42.7 48.1 97.85
  endloop
 endfacet
 facet normal 1 0 0
  outer loop
   vertex 42.7 33.7 112.25
   vertex 42.7 34.7 111.25
   vertex 42.7 48.1 111.25
  endloop
 endfacet
 facet normal 1 -0 0
  outer loop
   vertex 42.7 33.7 112.25
   vertex 42.7 48.1 111.25
   vertex 42.7 49.1 112.25
  endloop
 endfacet
 facet normal 1 0 0
  outer loop
   vertex 42.7 33.7 112.25
   vertex 42.7 33.7 96.85
   vertex 42.7 34.7 97.85
  endloop
 endfacet
 facet normal 1 0 0
  outer loop
   vertex 42.7 33.7 112.25
   vertex 42.7 34.7 97.85
   vertex 42.7 34.7 111.25
  endloop
 endfacet
 facet normal -1 0 -0
  outer loop
   vertex 40.3 112.25 112.25
   vertex 40.3 112.25 96.85
   vertex 40.3 111.25 111.25
  endloop
 endfacet
 facet normal -1 0 0
  outer loop
   vertex 40.3 112.25 96.85
   vertex 40.3 111.25 97.85
   vertex 40.3 111.25 111.25
  endloop
 endfacet
 facet normal -1 0 0
  outer loop
   vertex 40.3 112.25 96.85
   vertex 40.3 96.85 96.85
   vertex 40.3 97.85 97.85
  endloop
 endfacet
 facet normal -1 -0 -0
  outer loop
   vertex 40.3 111.25 97.85
   vertex 40.3 112.25 96.85
   vertex 40.3 97.85 97.85
  endloop
 endfacet
 facet normal -1 0 0
  outer loop
   vertex 40.3 111.25 111.25
   vertex 40.3 97.85 111.25
   vertex 40.3 96.85 112.25
  endloop
 endfacet
 facet normal -1 -0 0
  outer loop
   vertex 40.3 112.25 112.25
   vertex 40.3 111.25 111.25
   vertex 40.3 96.85 112.25
  endloop
 endfacet
 facet normal -1 -0 0
  outer loop
   vertex 40.3 97.85 97.85
   vertex 40.3 96.85 96.85
   vertex 40.3 96.85 112.25
  endloop
 endfacet
 facet normal -1 -0 -0
  outer loop
   vertex 40.3 97.85 111.25
   vertex 40.3 97.85 97.85
   vertex 40.3 96.85 112.25
  endloop
 endfacet
 facet normal 0 -1 0
  outer loop
   vertex 40.3 96.85 96.85
   vertex 42.7 96.85 96.85
   vertex 40.3 96.85 112.25
  endloop
 endfacet
 facet normal 0 -1 0
  outer loop
   vertex 40.3 96.85 112.25
   vertex 42.7 96.85 96.85
   vertex 42.7 96.85 112.25
  endloop
 endfacet
 facet normal 0 0 1
  outer loop
   vertex 40.3 112.25 112.25
   vertex 40.3 96.85 112.25
   vertex 42.7 96.85 112.25
  endloop
 endfacet
 facet normal 0 0 1
  outer loop
   vertex 42.7 112.25 112.25
   vertex 40.3 112.25 112.25
   vertex 42.7 96.85 112.25
  endloop
 endfacet
 facet normal 0 0 -1
  outer loop
   vertex 42.7 96.85 96.85
   vertex 40.3 96.85 96.85
   vertex 40.3 112.25 96.85
  endloop
 endfacet
 facet normal 0 0 -1
  outer loop
   vertex 42.7 96.85 96.85
   vertex 40.3 112.25 96.85
   vertex 42.7 112.25 96.85
  endloop
 endfacet
 facet normal 0 1 0
  outer loop
   vertex 40.3 112.25 112.25
   vertex 42.7 112.25 96.85
   vertex 40.3 112.25 96.85
  endloop
 endfacet
 facet normal 0 1 0
  outer loop
   vertex 42.7 112.25 112.25
   vertex 42.7 112.25 96.85
   vertex 40.3 112.25 112.25
  endloop
 endfacet
 facet normal 0 1 0
  outer loop
   vertex 42.7 97.85 111.25
   vertex 42.7 97.85 97.85
   vertex 40.3 97.85 97.85
  endloop
 endfacet
 facet normal 0 1 0
  outer loop
   vertex 42.7 97.85 111.25
   vertex 40.3 97.85 97.85
   vertex 40.3 97.85 111.25
  endloop
 endfacet
 facet normal 0 0 1
  outer loop
   vertex 42.7 111.25 97.85
   vertex 40.3 111.25 97.85
   vertex 40.3 97.85 97.85
  endloop
 endfacet
 facet normal 0 0 1
  outer loop
   vertex 42.7 111.25 97.85
   vertex 40.3 97.85 97.85
   vertex 42.7 97.85 97.85
  endloop
 endfacet
 facet normal 0 -1 0
  outer loop
   vertex 40.3 111.25 97.85
   vertex 42.7 111.25 97.85
   vertex 42.7 111.25 111.25
  endloop
 endfacet
 facet normal 0 -1 0
  outer loop
   vertex 40.3 111.25 111.25
   vertex 40.3 111.25 97.85
   vertex 42.7 111.25 111.25
  endloop
 endfacet
 facet normal 0 0 -1
  outer loop
   vertex 40.3 97.85 111.25
   vertex 40.3 111.25 111.25
   vertex 42.7 111.25 111.25
  endloop
 endfacet
 facet normal 0 0 -1
  outer loop
   vertex 42.7 97.85 111.25
   vertex 40.3 97.85 111.25
   vertex 42.7 111.25 111.25
  endloop
 endfacet
 facet normal 1 -0 0
  outer loop
   vertex 42.7 111.25 111.25
   vertex 42.7 112.25 96.85
   vertex 42.7 112.25 112.25
  endloop
 endfacet
 facet normal 1 0 0
  outer loop
   vertex 42.7 111.25 111.25
   vertex 42.7 111.25 97.85
   vertex 42.7 112.25 96.85
  endloop
 endfacet
 facet normal 1 0 0
  outer loop
   vertex 42.7 97.85 97.85
   vertex 42.7 96.85 96.85
   vertex 42.7 112.25 96.85
  endloop
 endfacet
 facet normal 1 -0 0
  outer loop
   vertex 42.7 97.85 97.85
   vertex 42.7 112.25 96.85
   vertex 42.7 111.25 97.85
  endloop
 endfacet
 facet normal 1 0 0
  outer loop
   vertex 42.7 96.85 112.25
   vertex 42.7 97.85 111.25
   vertex 42.7 111.25 111.25
  endloop
 endfacet
 facet normal 1 -0 0
  outer loop
   vertex 42.7 96.85 112.25
   vertex 42.7 111.25 111.25
   vertex 42.7 112.25 112.25
  endloop
 endfacet
 facet normal 1 0 0
  outer loop
   vertex 42.7 96.85 112.25
   vertex 42.7 96.85 96.85
   vertex 42.7 97.85 97.85
  endloop
 endfacet
 facet normal 1 0 0
  outer loop
   vertex 42.7 96.85 112.25
   vertex 42.7 97.85 97.85
   vertex 42.7 97.85 111.25
  endloop
 endfacet
 facet normal -1 0 0
  outer loop
   vertex 40.3 18.35 2.95
   vertex 40.3 17.35 3.95
   vertex 40.3 17.35 17.35
  endloop
 endfacet
 facet normal -1 0 0
  outer loop
   vertex 40.3 18.35 2.95
   vertex 40.3 2.95 2.95
   vertex 40.3 3.95 3.95
  endloop
 endfacet
 facet normal -1 -0 -0
  outer loop
   vertex 40.3 17.35 3.95
   vertex 40.3 18.35 2.95
   vertex 40.3 3.95 3.95
  endloop
 endfacet
 facet normal -1 0 0
  outer loop
   vertex 40.3 18.35 2.95
   vertex 40.3 17.35 17.35
   vertex 40.3 18.35 18.35
  endloop
 endfacet
 facet normal -1 0 0
  outer loop
   vertex 40.3 18.35 18.35
   vertex 40.3 17.35 17.35
   vertex 40.3 3.95 17.35
  endloop
 endfacet
 facet normal -1 -0 0
  outer loop
   vertex 40.3 18.35 18.35
   vertex 40.3 3.95 17.35
   vertex 40.3 2.95 18.35
  endloop
 endfacet
 facet normal -1 -0 0
  outer loop
   vertex 40.3 3.95 3.95
   vertex 40.3 2.95 2.95
   vertex 40.3 2.95 18.35
  endloop
 endfacet
 facet normal -1 -0 -0
  outer loop
   vertex 40.3 3.95 17.35
   vertex 40.3 3.95 3.95
   vertex 40.3 2.95 18.35
  endloop
 endfacet
 facet normal 0 -1 0
  outer loop
   vertex 40.3 2.95 2.95
   vertex 42.7 2.95 2.95
   vertex 42.7 2.95 18.35
  endloop
 endfacet
 facet normal 0 -1 0
  outer loop
   vertex 40.3 2.95 18.35
   vertex 40.3 2.95 2.95
   vertex 42.7 2.95 18.35
  endloop
 endfacet
 facet normal 0 0 1
  outer loop
   vertex 42.7 18.35 18.35
   vertex 40.3 18.35 18.35
   vertex 40.3 2.95 18.35
  endloop
 endfacet
 facet normal 0 0 1
  outer loop
   vertex 42.7 18.35 18.35
   vertex 40.3 2.95 18.35
   vertex 42.7 2.95 18.35
  endloop
 endfacet
 facet normal 0 0 -1
  outer loop
   vertex 40.3 2.95 2.95
   vertex 40.3 18.35 2.95
   vertex 42.7 18.35 2.95
  endloop
 endfacet
 facet normal 0 0 -1
  outer loop
   vertex 42.7 2.95 2.95
   vertex 40.3 2.95 2.95
   vertex 42.7 18.35 2.95
  endloop
 endfacet
 facet normal 0 1 0
  outer loop
   vertex 42.7 18.35 18.35
   vertex 42.7 18.35 2.95
   vertex 40.3 18.35 2.95
  endloop
 endfacet
 facet normal 0 1 0
  outer loop
   vertex 42.7 18.35 18.35
   vertex 40.3 18.35 2.95
   vertex 40.3 18.35 18.35
  endloop
 endfacet
 facet normal 0 1 0
  outer loop
   vertex 42.7 3.95 17.35
   vertex 42.7 3.95 3.95
   vertex 40.3 3.95 3.95
  endloop
 endfacet
 facet normal 0 1 0
  outer loop
   vertex 42.7 3.95 17.35
   vertex 40.3 3.95 3.95
   vertex 40.3 3.95 17.35
  endloop
 endfacet
 facet normal 0 0 1
  outer loop
   vertex 42.7 17.35 3.95
   vertex 40.3 17.35 3.95
   vertex 40.3 3.95 3.95
  endloop
 endfacet
 facet normal 0 0 1
  outer loop
   vertex 42.7 17.35 3.95
   vertex 40.3 3.95 3.95
   vertex 42.7 3.95 3.95
  endloop
 endfacet
 facet normal 0 -1 0
  outer loop
   vertex 40.3 17.35 3.95
   vertex 42.7 17.35 3.95
   vertex 42.7 17.35 17.35
  endloop
 endfacet
 facet normal 0 -1 0
  outer loop
   vertex 40.3 17.35 17.35
   vertex 40.3 17.35 3.95
   vertex 42.7 17.35 17.35
  endloop
 endfacet
 facet normal 0 0 -1
  outer loop
   vertex 40.3 3.95 17.35
   vertex 40.3 17.35 17.35
   vertex 42.7 17.35 17.35
  endloop
 endfacet
 facet normal 0 0 -1
  outer loop
   vertex 42.7 3.95 17.35
   vertex 40.3 3.95 17.35
   vertex 42.7 17.35 17.35
  endloop
 endfacet
 facet normal 1 -0 0
  outer loop
   vertex 42.7 17.35 17.35
   vertex 42.7 18.35 2.95
   vertex 42.7 18.35 18.35
  endloop
 endfacet
 facet normal 1 0 0
  outer loop
   vertex 42.7 17.35 17.35
   vertex 42.7 17.35 3.95
   vertex 42.7 18.35 2.95
  endloop
 endfacet
 facet normal 1 0 0
  outer loop
   vertex 42.7 3.95 3.95
   vertex 42.7 2.95 2.95
   vertex 42.7 18.35 2.95
  endloop
 endfacet
 facet normal 1 -0 0
  outer loop
   vertex 42.7 3.95 3.95
   vertex 42.7 18.35 2.95
   vertex 42.7 17.35 3.95
  endloop
 endfacet
 facet normal 1 0 0
  outer loop
   vertex 42.7 3.95 17.35
   vertex 42.7 17.35 17.35
   vertex 42.7 18.35 18.35
  endloop
 endfacet
 facet normal 1 -0 0
  outer loop
   vertex 42.7 2.95 18.35
   vertex 42.7 3.95 17.35
   vertex 42.7 18.35 18.35
  endloop
 endfacet
 facet normal 1 0 0
  outer loop
   vertex 42.7 2.95 18.35
   vertex 42.7 2.95 2.95
   vertex 42.7 3.95 3.95
  endloop
 endfacet
 facet normal 1 0 0
  outer loop
   vertex 42.7 2.95 18.35
   vertex 42.7 3.95 3.95
   vertex 42.7 3.95 17.35
  endloop
 endfacet
 facet normal -1 0 0
  outer loop
   vertex 40.3 17.35 34.7
   vertex 40.3 17.35 48.1
   vertex 40.3 18.35 49.1
  endloop
 endfacet
 facet normal -1 0 0
  outer loop
   vertex 40.3 18.35 33.7
   vertex 40.3 17.35 34.7
   vertex 40.3 18.35 49.1
  endloop
 endfacet
 facet normal -1 0 0
  outer loop
   vertex 40.3 18.35 33.7
   vertex 40.3 2.95 33.7
   vertex 40.3 3.95 34.7
  endloop
 endfacet
 facet normal -1 -0 -0
  outer loop
   vertex 40.3 17.35 34.7
   vertex 40.3 18.35 33.7
   vertex 40.3 3.95 34.7
  endloop
 endfacet
 facet normal -1 0 0
  outer loop
   vertex 40.3 18.35 49.1
   vertex 40.3 17.35 48.1
   vertex 40.3 3.95 48.1
  endloop
 endfacet
 facet normal -1 -0 0
  outer loop
   vertex 40.3 18.35 49.1
   vertex 40.3 3.95 48.1
   vertex 40.3 2.95 49.1
  endloop
 endfacet
 facet normal -1 -0 0
  outer loop
   vertex 40.3 3.95 34.7
   vertex 40.3 2.95 33.7
   vertex 40.3 2.95 49.1
  endloop
 endfacet
 facet normal -1 -0 -0
  outer loop
   vertex 40.3 3.95 48.1
   vertex 40.3 3.95 34.7
   vertex 40.3 2.95 49.1
  endloop
 endfacet
 facet normal 0 -1 0
  outer loop
   vertex 40.3 2.95 33.7
   vertex 42.7 2.95 33.7
   vertex 40.3 2.95 49.1
  endloop
 endfacet
 facet normal 0 -1 0
  outer loop
   vertex 40.3 2.95 49.1
   vertex 42.7 2.95 33.7
   vertex 42.7 2.95 49.1
  endloop
 endfacet
 facet normal 0 0 1
  outer loop
   vertex 42.7 18.35 49.1
   vertex 40.3 18.35 49.1
   vertex 40.3 2.95 49.1
  endloop
 endfacet
 facet normal 0 0 1
  outer loop
   vertex 42.7 18.35 49.1
   vertex 40.3 2.95 49.1
   vertex 42.7 2.95 49.1
  endloop
 endfacet
 facet normal 0 0 -1
  outer loop
   vertex 40.3 2.95 33.7
   vertex 40.3 18.35 33.7
   vertex 42.7 18.35 33.7
  endloop
 endfacet
 facet normal 0 0 -1
  outer loop
   vertex 42.7 2.95 33.7
   vertex 40.3 2.95 33.7
   vertex 42.7 18.35 33.7
  endloop
 endfacet
 facet normal 0 1 0
  outer loop
   vertex 40.3 18.35 49.1
   vertex 42.7 18.35 33.7
   vertex 40.3 18.35 33.7
  endloop
 endfacet
 facet normal 0 1 0
  outer loop
   vertex 42.7 18.35 49.1
   vertex 42.7 18.35 33.7
   vertex 40.3 18.35 49.1
  endloop
 endfacet
 facet normal 0 1 0
  outer loop
   vertex 42.7 3.95 48.1
   vertex 42.7 3.95 34.7
   vertex 40.3 3.95 34.7
  endloop
 endfacet
 facet normal 0 1 0
  outer loop
   vertex 42.7 3.95 48.1
   vertex 40.3 3.95 34.7
   vertex 40.3 3.95 48.1
  endloop
 endfacet
 facet normal 0 0 1
  outer loop
   vertex 42.7 17.35 34.7
   vertex 40.3 17.35 34.7
   vertex 40.3 3.95 34.7
  endloop
 endfacet
 facet normal 0 0 1
  outer loop
   vertex 42.7 17.35 34.7
   vertex 40.3 3.95 34.7
   vertex 42.7 3.95 34.7
  endloop
 endfacet
 facet normal 0 -1 0
  outer loop
   vertex 40.3 17.35 34.7
   vertex 42.7 17.35 34.7
   vertex 42.7 17.35 48.1
  endloop
 endfacet
 facet normal 0 -1 0
  outer loop
   vertex 40.3 17.35 48.1
   vertex 40.3 17.35 34.7
   vertex 42.7 17.35 48.1
  endloop
 endfacet
 facet normal 0 0 -1
  outer loop
   vertex 40.3 3.95 48.1
   vertex 40.3 17.35 48.1
   vertex 42.7 17.35 48.1
  endloop
 endfacet
 facet normal 0 0 -1
  outer loop
   vertex 42.7 3.95 48.1
   vertex 40.3 3.95 48.1
   vertex 42.7 17.35 48.1
  endloop
 endfacet
 facet normal 1 -0 0
  outer loop
   vertex 42.7 17.35 48.1
   vertex 42.7 18.35 33.7
   vertex 42.7 18.35 49.1
  endloop
 endfacet
 facet normal 1 0 0
  outer loop
   vertex 42.7 17.35 48.1
   vertex 42.7 17.35 34.7
   vertex 42.7 18.35 33.7
  endloop
 endfacet
 facet normal 1 0 0
  outer loop
   vertex 42.7 3.95 34.7
   vertex 42.7 2.95 33.7
   vertex 42.7 18.35 33.7
  endloop
 endfacet
 facet normal 1 -0 0
  outer loop
   vertex 42.7 3.95 34.7
   vertex 42.7 18.35 33.7
   vertex 42.7 17.35 34.7
  endloop
 endfacet
 facet normal 1 0 0
  outer loop
   vertex 42.7 3.95 48.1
   vertex 42.7 17.35 48.1
   vertex 42.7 18.35 49.1
  endloop
 endfacet
 facet normal 1 -0 0
  outer loop
   vertex 42.7 2.95 49.1
   vertex 42.7 3.95 48.1
   vertex 42.7 18.35 49.1
  endloop
 endfacet
 facet normal 1 0 0
  outer loop
   vertex 42.7 2.95 49.1
   vertex 42.7 2.95 33.7
   vertex 42.7 3.95 34.7
  endloop
 endfacet
 facet normal 1 0 0
  outer loop
   vertex 42.7 2.95 49.1
   vertex 42.7 3.95 34.7
   vertex 42.7 3.95 48.1
  endloop
 endfacet
 facet normal -1 0 -0
  outer loop
   vertex 40.3 81.5 112.25
   vertex 40.3 81.5 96.85
   vertex 40.3 80.5 111.25
  endloop
 endfacet
 facet normal -1 0 0
  outer loop
   vertex 40.3 81.5 96.85
   vertex 40.3 80.5 97.85
   vertex 40.3 80.5 111.25
  endloop
 endfacet
 facet normal -1 0 0
  outer loop
   vertex 40.3 81.5 96.85
   vertex 40.3 66.1 96.85
   vertex 40.3 67.1 97.85
  endloop
 endfacet
 facet normal -1 -0 -0
  outer loop
   vertex 40.3 80.5 97.85
   vertex 40.3 81.5 96.85
   vertex 40.3 67.1 97.85
  endloop
 endfacet
 facet normal -1 0 0
  outer loop
   vertex 40.3 80.5 111.25
   vertex 40.3 67.1 111.25
   vertex 40.3 66.1 112.25
  endloop
 endfacet
 facet normal -1 -0 0
  outer loop
   vertex 40.3 81.5 112.25
   vertex 40.3 80.5 111.25
   vertex 40.3 66.1 112.25
  endloop
 endfacet
 facet normal -1 -0 0
  outer loop
   vertex 40.3 67.1 97.85
   vertex 40.3 66.1 96.85
   vertex 40.3 66.1 112.25
  endloop
 endfacet
 facet normal -1 -0 -0
  outer loop
   vertex 40.3 67.1 111.25
   vertex 40.3 67.1 97.85
   vertex 40.3 66.1 112.25
  endloop
 endfacet
 facet normal 0 -1 0
  outer loop
   vertex 40.3 66.1 96.85
   vertex 42.7 66.1 96.85
   vertex 40.3 66.1 112.25
  endloop
 endfacet
 facet normal 0 -1 0
  outer loop
   vertex 40.3 66.1 112.25
   vertex 42.7 66.1 96.85
   vertex 42.7 66.1 112.25
  endloop
 endfacet
 facet normal 0 0 1
  outer loop
   vertex 40.3 81.5 112.25
   vertex 40.3 66.1 112.25
   vertex 42.7 66.1 112.25
  endloop
 endfacet
 facet normal 0 0 1
  outer loop
   vertex 42.7 81.5 112.25
   vertex 40.3 81.5 112.25
   vertex 42.7 66.1 112.25
  endloop
 endfacet
 facet normal 0 0 -1
  outer loop
   vertex 42.7 66.1 96.85
   vertex 40.3 66.1 96.85
   vertex 40.3 81.5 96.85
  endloop
 endfacet
 facet normal 0 0 -1
  outer loop
   vertex 42.7 66.1 96.85
   vertex 40.3 81.5 96.85
   vertex 42.7 81.5 96.85
  endloop
 endfacet
 facet normal 0 1 0
  outer loop
   vertex 40.3 81.5 112.25
   vertex 42.7 81.5 96.85
   vertex 40.3 81.5 96.85
  endloop
 endfacet
 facet normal 0 1 0
  outer loop
   vertex 42.7 81.5 112.25
   vertex 42.7 81.5 96.85
   vertex 40.3 81.5 112.25
  endloop
 endfacet
 facet normal 0 1 0
  outer loop
   vertex 42.7 67.1 111.25
   vertex 42.7 67.1 97.85
   vertex 40.3 67.1 97.85
  endloop
 endfacet
 facet normal 0 1 0
  outer loop
   vertex 42.7 67.1 111.25
   vertex 40.3 67.1 97.85
   vertex 40.3 67.1 111.25
  endloop
 endfacet
 facet normal 0 0 1
  outer loop
   vertex 42.7 80.5 97.85
   vertex 40.3 80.5 97.85
   vertex 40.3 67.1 97.85
  endloop
 endfacet
 facet normal 0 0 1
  outer loop
   vertex 42.7 80.5 97.85
   vertex 40.3 67.1 97.85
   vertex 42.7 67.1 97.85
  endloop
 endfacet
 facet normal 0 -1 0
  outer loop
   vertex 40.3 80.5 97.85
   vertex 42.7 80.5 97.85
   vertex 42.7 80.5 111.25
  endloop
 endfacet
 facet normal 0 -1 0
  outer loop
   vertex 40.3 80.5 111.25
   vertex 40.3 80.5 97.85
   vertex 42.7 80.5 111.25
  endloop
 endfacet
 facet normal 0 0 -1
  outer loop
   vertex 40.3 67.1 111.25
   vertex 40.3 80.5 111.25
   vertex 42.7 80.5 111.25
  endloop
 endfacet
 facet normal 0 0 -1
  outer loop
   vertex 42.7 67.1 111.25
   vertex 40.3 67.1 111.25
   vertex 42.7 80.5 111.25
  endloop
 endfacet
 facet normal 1 -0 0
  outer loop
   vertex 42.7 80.5 111.25
   vertex 42.7 81.5 96.85
   vertex 42.7 81.5 112.25
  endloop
 endfacet
 facet normal 1 0 0
  outer loop
   vertex 42.7 80.5 111.25
   vertex 42.7 80.5 97.85
   vertex 42.7 81.5 96.85
  endloop
 endfacet
 facet normal 1 0 0
  outer loop
   vertex 42.7 67.1 97.85
   vertex 42.7 66.1 96.85
   vertex 42.7 81.5 96.85
  endloop
 endfacet
 facet normal 1 -0 0
  outer loop
   vertex 42.7 67.1 97.85
   vertex 42.7 81.5 96.85
   vertex 42.7 80.5 97.85
  endloop
 endfacet
 facet normal 1 0 0
  outer loop
   vertex 42.7 66.1 112.25
   vertex 42.7 67.1 111.25
   vertex 42.7 80.5 111.25
  endloop
 endfacet
 facet normal 1 -0 0
  outer loop
   vertex 42.7 66.1 112.25
   vertex 42.7 80.5 111.25
   vertex 42.7 81.5 112.25
  endloop
 endfacet
 facet normal 1 0 0
  outer loop
   vertex 42.7 66.1 112.25
   vertex 42.7 66.1 96.85
   vertex 42.7 67.1 97.85
  endloop
 endfacet
 facet normal 1 0 0
  outer loop
   vertex 42.7 66.1 112.25
   vertex 42.7 67.1 97.85
   vertex 42.7 67.1 111.25
  endloop
 endfacet
 facet normal -1 0 0
  outer loop
   vertex 40.3 81.5 2.95
   vertex 40.3 66.1 2.95
   vertex 40.3 67.1 3.95
  endloop
 endfacet
 facet normal -1 -0 -0
  outer loop
   vertex 40.3 80.5 3.95
   vertex 40.3 81.5 2.95
   vertex 40.3 67.1 3.95
  endloop
 endfacet
 facet normal -1 0 0
  outer loop
   vertex 40.3 80.5 3.95
   vertex 40.3 80.5 17.35
   vertex 40.3 81.5 18.35
  endloop
 endfacet
 facet normal -1 0 0
  outer loop
   vertex 40.3 81.5 2.95
   vertex 40.3 80.5 3.95
   vertex 40.3 81.5 18.35
  endloop
 endfacet
 facet normal -1 0 0
  outer loop
   vertex 40.3 80.5 17.35
   vertex 40.3 67.1 17.35
   vertex 40.3 66.1 18.35
  endloop
 endfacet
 facet normal -1 -0 0
  outer loop
   vertex 40.3 81.5 18.35
   vertex 40.3 80.5 17.35
   vertex 40.3 66.1 18.35
  endloop
 endfacet
 facet normal -1 -0 0
  outer loop
   vertex 40.3 67.1 3.95
   vertex 40.3 66.1 2.95
   vertex 40.3 66.1 18.35
  endloop
 endfacet
 facet normal -1 -0 -0
  outer loop
   vertex 40.3 67.1 17.35
   vertex 40.3 67.1 3.95
   vertex 40.3 66.1 18.35
  endloop
 endfacet
 facet normal 0 -1 0
  outer loop
   vertex 40.3 66.1 2.95
   vertex 42.7 66.1 2.95
   vertex 42.7 66.1 18.35
  endloop
 endfacet
 facet normal 0 -1 0
  outer loop
   vertex 40.3 66.1 18.35
   vertex 40.3 66.1 2.95
   vertex 42.7 66.1 18.35
  endloop
 endfacet
 facet normal 0 0 1
  outer loop
   vertex 40.3 81.5 18.35
   vertex 40.3 66.1 18.35
   vertex 42.7 66.1 18.35
  endloop
 endfacet
 facet normal 0 0 1
  outer loop
   vertex 42.7 81.5 18.35
   vertex 40.3 81.5 18.35
   vertex 42.7 66.1 18.35
  endloop
 endfacet
 facet normal 0 0 -1
  outer loop
   vertex 42.7 66.1 2.95
   vertex 40.3 66.1 2.95
   vertex 40.3 81.5 2.95
  endloop
 endfacet
 facet normal 0 0 -1
  outer loop
   vertex 42.7 66.1 2.95
   vertex 40.3 81.5 2.95
   vertex 42.7 81.5 2.95
  endloop
 endfacet
 facet normal 0 1 0
  outer loop
   vertex 42.7 81.5 18.35
   vertex 42.7 81.5 2.95
   vertex 40.3 81.5 2.95
  endloop
 endfacet
 facet normal 0 1 0
  outer loop
   vertex 42.7 81.5 18.35
   vertex 40.3 81.5 2.95
   vertex 40.3 81.5 18.35
  endloop
 endfacet
 facet normal 0 1 0
  outer loop
   vertex 42.7 67.1 17.35
   vertex 42.7 67.1 3.95
   vertex 40.3 67.1 3.95
  endloop
 endfacet
 facet normal 0 1 0
  outer loop
   vertex 42.7 67.1 17.35
   vertex 40.3 67.1 3.95
   vertex 40.3 67.1 17.35
  endloop
 endfacet
 facet normal 0 0 1
  outer loop
   vertex 42.7 80.5 3.95
   vertex 40.3 80.5 3.95
   vertex 40.3 67.1 3.95
  endloop
 endfacet
 facet normal 0 0 1
  outer loop
   vertex 42.7 80.5 3.95
   vertex 40.3 67.1 3.95
   vertex 42.7 67.1 3.95
  endloop
 endfacet
 facet normal 0 -1 0
  outer loop
   vertex 40.3 80.5 3.95
   vertex 42.7 80.5 3.95
   vertex 42.7 80.5 17.35
  endloop
 endfacet
 facet normal 0 -1 0
  outer loop
   vertex 40.3 80.5 17.35
   vertex 40.3 80.5 3.95
   vertex 42.7 80.5 17.35
  endloop
 endfacet
 facet normal 0 0 -1
  outer loop
   vertex 40.3 67.1 17.35
   vertex 40.3 80.5 17.35
   vertex 42.7 80.5 17.35
  endloop
 endfacet
 facet normal 0 0 -1
  outer loop
   vertex 42.7 67.1 17.35
   vertex 40.3 67.1 17.35
   vertex 42.7 80.5 17.35
  endloop
 endfacet
 facet normal 1 0 0
  outer loop
   vertex 42.7 67.1 3.95
   vertex 42.7 66.1 2.95
   vertex 42.7 81.5 2.95
  endloop
 endfacet
 facet normal 1 -0 0
  outer loop
   vertex 42.7 67.1 3.95
   vertex 42.7 81.5 2.95
   vertex 42.7 80.5 3.95
  endloop
 endfacet
 facet normal 1 -0 0
  outer loop
   vertex 42.7 80.5 17.35
   vertex 42.7 81.5 2.95
   vertex 42.7 81.5 18.35
  endloop
 endfacet
 facet normal 1 0 0
  outer loop
   vertex 42.7 80.5 17.35
   vertex 42.7 80.5 3.95
   vertex 42.7 81.5 2.95
  endloop
 endfacet
 facet normal 1 0 0
  outer loop
   vertex 42.7 66.1 18.35
   vertex 42.7 67.1 17.35
   vertex 42.7 80.5 17.35
  endloop
 endfacet
 facet normal 1 -0 0
  outer loop
   vertex 42.7 66.1 18.35
   vertex 42.7 80.5 17.35
   vertex 42.7 81.5 18.35
  endloop
 endfacet
 facet normal 1 0 0
  outer loop
   vertex 42.7 66.1 18.35
   vertex 42.7 66.1 2.95
   vertex 42.7 67.1 3.95
  endloop
 endfacet
 facet normal 1 0 0
  outer loop
   vertex 42.7 66.1 18.35
   vertex 42.7 67.1 3.95
   vertex 42.7 67.1 17.35
  endloop
 endfacet
 facet normal -1 0 0
  outer loop
   vertex 40.3 18.35 96.85
   vertex 40.3 17.35 97.85
   vertex 40.3 18.35 112.25
  endloop
 endfacet
 facet normal -1 0 0
  outer loop
   vertex 40.3 18.35 112.25
   vertex 40.3 17.35 97.85
   vertex 40.3 17.35 111.25
  endloop
 endfacet
 facet normal -1 0 0
  outer loop
   vertex 40.3 18.35 96.85
   vertex 40.3 2.95 96.85
   vertex 40.3 3.95 97.85
  endloop
 endfacet
 facet normal -1 -0 -0
  outer loop
   vertex 40.3 17.35 97.85
   vertex 40.3 18.35 96.85
   vertex 40.3 3.95 97.85
  endloop
 endfacet
 facet normal -1 0 0
  outer loop
   vertex 40.3 17.35 111.25
   vertex 40.3 3.95 111.25
   vertex 40.3 2.95 112.25
  endloop
 endfacet
 facet normal -1 -0 0
  outer loop
   vertex 40.3 18.35 112.25
   vertex 40.3 17.35 111.25
   vertex 40.3 2.95 112.25
  endloop
 endfacet
 facet normal -1 -0 0
  outer loop
   vertex 40.3 3.95 97.85
   vertex 40.3 2.95 96.85
   vertex 40.3 2.95 112.25
  endloop
 endfacet
 facet normal -1 -0 -0
  outer loop
   vertex 40.3 3.95 111.25
   vertex 40.3 3.95 97.85
   vertex 40.3 2.95 112.25
  endloop
 endfacet
 facet normal 0 -1 0
  outer loop
   vertex 40.3 2.95 96.85
   vertex 42.7 2.95 96.85
   vertex 40.3 2.95 112.25
  endloop
 endfacet
 facet normal 0 -1 0
  outer loop
   vertex 40.3 2.95 112.25
   vertex 42.7 2.95 96.85
   vertex 42.7 2.95 112.25
  endloop
 endfacet
 facet normal 0 0 1
  outer loop
   vertex 42.7 18.35 112.25
   vertex 40.3 18.35 112.25
   vertex 40.3 2.95 112.25
  endloop
 endfacet
 facet normal 0 0 1
  outer loop
   vertex 42.7 18.35 112.25
   vertex 40.3 2.95 112.25
   vertex 42.7 2.95 112.25
  endloop
 endfacet
 facet normal 0 0 -1
  outer loop
   vertex 40.3 2.95 96.85
   vertex 40.3 18.35 96.85
   vertex 42.7 18.35 96.85
  endloop
 endfacet
 facet normal 0 0 -1
  outer loop
   vertex 42.7 2.95 96.85
   vertex 40.3 2.95 96.85
   vertex 42.7 18.35 96.85
  endloop
 endfacet
 facet normal 0 1 0
  outer loop
   vertex 40.3 18.35 112.25
   vertex 42.7 18.35 96.85
   vertex 40.3 18.35 96.85
  endloop
 endfacet
 facet normal 0 1 0
  outer loop
   vertex 42.7 18.35 112.25
   vertex 42.7 18.35 96.85
   vertex 40.3 18.35 112.25
  endloop
 endfacet
 facet normal 0 1 0
  outer loop
   vertex 42.7 3.95 111.25
   vertex 42.7 3.95 97.85
   vertex 40.3 3.95 97.85
  endloop
 endfacet
 facet normal 0 1 0
  outer loop
   vertex 42.7 3.95 111.25
   vertex 40.3 3.95 97.85
   vertex 40.3 3.95 111.25
  endloop
 endfacet
 facet normal 0 0 1
  outer loop
   vertex 42.7 17.35 97.85
   vertex 40.3 17.35 97.85
   vertex 40.3 3.95 97.85
  endloop
 endfacet
 facet normal 0 0 1
  outer loop
   vertex 42.7 17.35 97.85
   vertex 40.3 3.95 97.85
   vertex 42.7 3.95 97.85
  endloop
 endfacet
 facet normal 0 -1 0
  outer loop
   vertex 40.3 17.35 97.85
   vertex 42.7 17.35 97.85
   vertex 42.7 17.35 111.25
  endloop
 endfacet
 facet normal 0 -1 0
  outer loop
   vertex 40.3 17.35 111.25
   vertex 40.3 17.35 97.85
   vertex 42.7 17.35 111.25
  endloop
 endfacet
 facet normal 0 0 -1
  outer loop
   vertex 40.3 3.95 111.25
   vertex 40.3 17.35 111.25
   vertex 42.7 17.35 111.25
  endloop
 endfacet
 facet normal 0 0 -1
  outer loop
   vertex 42.7 3.95 111.25
   vertex 40.3 3.95 111.25
   vertex 42.7 17.35 111.25
  endloop
 endfacet
 facet normal 1 0 0
  outer loop
   vertex 42.7 18.35 112.25
   vertex 42.7 17.35 97.85
   vertex 42.7 18.35 96.85
  endloop
 endfacet
 facet normal 1 -0 0
  outer loop
   vertex 42.7 17.35 111.25
   vertex 42.7 17.35 97.85
   vertex 42.7 18.35 112.25
  endloop
 endfacet
 facet normal 1 0 0
  outer loop
   vertex 42.7 3.95 97.85
   vertex 42.7 2.95 96.85
   vertex 42.7 18.35 96.85
  endloop
 endfacet
 facet normal 1 -0 0
  outer loop
   vertex 42.7 3.95 97.85
   vertex 42.7 18.35 96.85
   vertex 42.7 17.35 97.85
  endloop
 endfacet
 facet normal 1 0 0
  outer loop
   vertex 42.7 2.95 112.25
   vertex 42.7 3.95 111.25
   vertex 42.7 17.35 111.25
  endloop
 endfacet
 facet normal 1 -0 0
  outer loop
   vertex 42.7 2.95 112.25
   vertex 42.7 17.35 111.25
   vertex 42.7 18.35 112.25
  endloop
 endfacet
 facet normal 1 0 0
  outer loop
   vertex 42.7 2.95 112.25
   vertex 42.7 2.95 96.85
   vertex 42.7 3.95 97.85
  endloop
 endfacet
 facet normal 1 0 0
  outer loop
   vertex 42.7 2.95 112.25
   vertex 42.7 3.95 97.85
   vertex 42.7 3.95 111.25
  endloop
 endfacet
 facet normal -1 0 -0
  outer loop
   vertex 40.3 81.5 81.5
   vertex 40.3 81.5 66.1
   vertex 40.3 80.5 80.5
  endloop
 endfacet
 facet normal -1 0 0
  outer loop
   vertex 40.3 81.5 66.1
   vertex 40.3 80.5 67.1
   vertex 40.3 80.5 80.5
  endloop
 endfacet
 facet normal -1 0 0
  outer loop
   vertex 40.3 81.5 66.1
   vertex 40.3 66.1 66.1
   vertex 40.3 67.1 67.1
  endloop
 endfacet
 facet normal -1 -0 -0
  outer loop
   vertex 40.3 80.5 67.1
   vertex 40.3 81.5 66.1
   vertex 40.3 67.1 67.1
  endloop
 endfacet
 facet normal -1 0 0
  outer loop
   vertex 40.3 80.5 80.5
   vertex 40.3 67.1 80.5
   vertex 40.3 66.1 81.5
  endloop
 endfacet
 facet normal -1 -0 0
  outer loop
   vertex 40.3 81.5 81.5
   vertex 40.3 80.5 80.5
   vertex 40.3 66.1 81.5
  endloop
 endfacet
 facet normal -1 -0 0
  outer loop
   vertex 40.3 67.1 67.1
   vertex 40.3 66.1 66.1
   vertex 40.3 66.1 81.5
  endloop
 endfacet
 facet normal -1 -0 -0
  outer loop
   vertex 40.3 67.1 80.5
   vertex 40.3 67.1 67.1
   vertex 40.3 66.1 81.5
  endloop
 endfacet
 facet normal 0 -1 0
  outer loop
   vertex 40.3 66.1 66.1
   vertex 42.7 66.1 66.1
   vertex 40.3 66.1 81.5
  endloop
 endfacet
 facet normal 0 -1 0
  outer loop
   vertex 40.3 66.1 81.5
   vertex 42.7 66.1 66.1
   vertex 42.7 66.1 81.5
  endloop
 endfacet
 facet normal 0 0 1
  outer loop
   vertex 40.3 81.5 81.5
   vertex 40.3 66.1 81.5
   vertex 42.7 66.1 81.5
  endloop
 endfacet
 facet normal 0 0 1
  outer loop
   vertex 42.7 81.5 81.5
   vertex 40.3 81.5 81.5
   vertex 42.7 66.1 81.5
  endloop
 endfacet
 facet normal 0 0 -1
  outer loop
   vertex 42.7 66.1 66.1
   vertex 40.3 66.1 66.1
   vertex 40.3 81.5 66.1
  endloop
 endfacet
 facet normal 0 0 -1
  outer loop
   vertex 42.7 66.1 66.1
   vertex 40.3 81.5 66.1
   vertex 42.7 81.5 66.1
  endloop
 endfacet
 facet normal 0 1 0
  outer loop
   vertex 40.3 81.5 81.5
   vertex 42.7 81.5 66.1
   vertex 40.3 81.5 66.1
  endloop
 endfacet
 facet normal 0 1 0
  outer loop
   vertex 42.7 81.5 81.5
   vertex 42.7 81.5 66.1
   vertex 40.3 81.5 81.5
  endloop
 endfacet
 facet normal 0 1 0
  outer loop
   vertex 42.7 67.1 80.5
   vertex 42.7 67.1 67.1
   vertex 40.3 67.1 67.1
  endloop
 endfacet
 facet normal 0 1 0
  outer loop
   vertex 42.7 67.1 80.5
   vertex 40.3 67.1 67.1
   vertex 40.3 67.1 80.5
  endloop
 endfacet
 facet normal 0 0 1
  outer loop
   vertex 42.7 80.5 67.1
   vertex 40.3 80.5 67.1
   vertex 40.3 67.1 67.1
  endloop
 endfacet
 facet normal 0 0 1
  outer loop
   vertex 42.7 80.5 67.1
   vertex 40.3 67.1 67.1
   vertex 42.7 67.1 67.1
  endloop
 endfacet
 facet normal 0 -1 0
  outer loop
   vertex 40.3 80.5 67.1
   vertex 42.7 80.5 67.1
   vertex 42.7 80.5 80.5
  endloop
 endfacet
 facet normal 0 -1 0
  outer loop
   vertex 40.3 80.5 80.5
   vertex 40.3 80.5 67.1
   vertex 42.7 80.5 80.5
  endloop
 endfacet
 facet normal 0 0 -1
  outer loop
   vertex 40.3 67.1 80.5
   vertex 40.3 80.5 80.5
   vertex 42.7 80.5 80.5
  endloop
 endfacet
 facet normal 0 0 -1
  outer loop
   vertex 42.7 67.1 80.5
   vertex 40.3 67.1 80.5
   vertex 42.7 80.5 80.5
  endloop
 endfacet
 facet normal 1 -0 0
  outer loop
   vertex 42.7 80.5 80.5
   vertex 42.7 81.5 66.1
   vertex 42.7 81.5 81.5
  endloop
 endfacet
 facet normal 1 0 0
  outer loop
   vertex 42.7 80.5 80.5
   vertex 42.7 80.5 67.1
   vertex 42.7 81.5 66.1
  endloop
 endfacet
 facet normal 1 0 0
  outer loop
   vertex 42.7 67.1 67.1
   vertex 42.7 66.1 66.1
   vertex 42.7 81.5 66.1
  endloop
 endfacet
 facet normal 1 -0 0
  outer loop
   vertex 42.7 67.1 67.1
   vertex 42.7 81.5 66.1
   vertex 42.7 80.5 67.1
  endloop
 endfacet
 facet normal 1 0 0
  outer loop
   vertex 42.7 66.1 81.5
   vertex 42.7 67.1 80.5
   vertex 42.7 80.5 80.5
  endloop
 endfacet
 facet normal 1 -0 0
  outer loop
   vertex 42.7 66.1 81.5
   vertex 42.7 80.5 80.5
   vertex 42.7 81.5 81.5
  endloop
 endfacet
 facet normal 1 0 0
  outer loop
   vertex 42.7 66.1 81.5
   vertex 42.7 66.1 66.1
   vertex 42.7 67.1 67.1
  endloop
 endfacet
 facet normal 1 0 0
  outer loop
   vertex 42.7 66.1 81.5
   vertex 42.7 67.1 67.1
   vertex 42.7 67.1 80.5
  endloop
 endfacet
 facet normal -1 0 0
  outer loop
   vertex 40.3 49.1 66.1
   vertex 40.3 48.1 67.1
   vertex 40.3 49.1 81.5
  endloop
 endfacet
 facet normal -1 0 0
  outer loop
   vertex 40.3 49.1 81.5
   vertex 40.3 48.1 67.1
   vertex 40.3 48.1 80.5
  endloop
 endfacet
 facet normal -1 0 0
  outer loop
   vertex 40.3 49.1 66.1
   vertex 40.3 33.7 66.1
   vertex 40.3 34.7 67.1
  endloop
 endfacet
 facet normal -1 -0 -0
  outer loop
   vertex 40.3 48.1 67.1
   vertex 40.3 49.1 66.1
   vertex 40.3 34.7 67.1
  endloop
 endfacet
 facet normal -1 0 0
  outer loop
   vertex 40.3 48.1 80.5
   vertex 40.3 34.7 80.5
   vertex 40.3 33.7 81.5
  endloop
 endfacet
 facet normal -1 -0 0
  outer loop
   vertex 40.3 49.1 81.5
   vertex 40.3 48.1 80.5
   vertex 40.3 33.7 81.5
  endloop
 endfacet
 facet normal -1 -0 0
  outer loop
   vertex 40.3 34.7 67.1
   vertex 40.3 33.7 66.1
   vertex 40.3 33.7 81.5
  endloop
 endfacet
 facet normal -1 -0 -0
  outer loop
   vertex 40.3 34.7 80.5
   vertex 40.3 34.7 67.1
   vertex 40.3 33.7 81.5
  endloop
 endfacet
 facet normal 0 -1 0
  outer loop
   vertex 40.3 33.7 66.1
   vertex 42.7 33.7 66.1
   vertex 40.3 33.7 81.5
  endloop
 endfacet
 facet normal 0 -1 0
  outer loop
   vertex 40.3 33.7 81.5
   vertex 42.7 33.7 66.1
   vertex 42.7 33.7 81.5
  endloop
 endfacet
 facet normal 0 0 1
  outer loop
   vertex 40.3 49.1 81.5
   vertex 40.3 33.7 81.5
   vertex 42.7 33.7 81.5
  endloop
 endfacet
 facet normal 0 0 1
  outer loop
   vertex 42.7 49.1 81.5
   vertex 40.3 49.1 81.5
   vertex 42.7 33.7 81.5
  endloop
 endfacet
 facet normal 0 0 -1
  outer loop
   vertex 42.7 33.7 66.1
   vertex 40.3 33.7 66.1
   vertex 40.3 49.1 66.1
  endloop
 endfacet
 facet normal 0 0 -1
  outer loop
   vertex 42.7 33.7 66.1
   vertex 40.3 49.1 66.1
   vertex 42.7 49.1 66.1
  endloop
 endfacet
 facet normal 0 1 0
  outer loop
   vertex 40.3 49.1 81.5
   vertex 42.7 49.1 66.1
   vertex 40.3 49.1 66.1
  endloop
 endfacet
 facet normal 0 1 0
  outer loop
   vertex 42.7 49.1 81.5
   vertex 42.7 49.1 66.1
   vertex 40.3 49.1 81.5
  endloop
 endfacet
 facet normal 0 1 0
  outer loop
   vertex 42.7 34.7 80.5
   vertex 42.7 34.7 67.1
   vertex 40.3 34.7 67.1
  endloop
 endfacet
 facet normal 0 1 0
  outer loop
   vertex 42.7 34.7 80.5
   vertex 40.3 34.7 67.1
   vertex 40.3 34.7 80.5
  endloop
 endfacet
 facet normal 0 0 1
  outer loop
   vertex 42.7 48.1 67.1
   vertex 40.3 48.1 67.1
   vertex 40.3 34.7 67.1
  endloop
 endfacet
 facet normal 0 0 1
  outer loop
   vertex 42.7 48.1 67.1
   vertex 40.3 34.7 67.1
   vertex 42.7 34.7 67.1
  endloop
 endfacet
 facet normal 0 -1 0
  outer loop
   vertex 40.3 48.1 67.1
   vertex 42.7 48.1 67.1
   vertex 42.7 48.1 80.5
  endloop
 endfacet
 facet normal 0 -1 0
  outer loop
   vertex 40.3 48.1 80.5
   vertex 40.3 48.1 67.1
   vertex 42.7 48.1 80.5
  endloop
 endfacet
 facet normal 0 0 -1
  outer loop
   vertex 40.3 34.7 80.5
   vertex 40.3 48.1 80.5
   vertex 42.7 48.1 80.5
  endloop
 endfacet
 facet normal 0 0 -1
  outer loop
   vertex 42.7 34.7 80.5
   vertex 40.3 34.7 80.5
   vertex 42.7 48.1 80.5
  endloop
 endfacet
 facet normal 1 0 0
  outer loop
   vertex 42.7 49.1 81.5
   vertex 42.7 48.1 67.1
   vertex 42.7 49.1 66.1
  endloop
 endfacet
 facet normal 1 -0 0
  outer loop
   vertex 42.7 48.1 80.5
   vertex 42.7 48.1 67.1
   vertex 42.7 49.1 81.5
  endloop
 endfacet
 facet normal 1 0 0
  outer loop
   vertex 42.7 34.7 67.1
   vertex 42.7 33.7 66.1
   vertex 42.7 49.1 66.1
  endloop
 endfacet
 facet normal 1 -0 0
  outer loop
   vertex 42.7 34.7 67.1
   vertex 42.7 49.1 66.1
   vertex 42.7 48.1 67.1
  endloop
 endfacet
 facet normal 1 0 0
  outer loop
   vertex 42.7 33.7 81.5
   vertex 42.7 34.7 80.5
   vertex 42.7 48.1 80.5
  endloop
 endfacet
 facet normal 1 -0 0
  outer loop
   vertex 42.7 33.7 81.5
   vertex 42.7 48.1 80.5
   vertex 42.7 49.1 81.5
  endloop
 endfacet
 facet normal 1 0 0
  outer loop
   vertex 42.7 33.7 81.5
   vertex 42.7 33.7 66.1
   vertex 42.7 34.7 67.1
  endloop
 endfacet
 facet normal 1 0 0
  outer loop
   vertex 42.7 33.7 81.5
   vertex 42.7 34.7 67.1
   vertex 42.7 34.7 80.5
  endloop
 endfacet
 facet normal -1 0 0
  outer loop
   vertex 40.3 112.25 33.7
   vertex 40.3 111.25 34.7
   vertex 40.3 111.25 48.1
  endloop
 endfacet
 facet normal -1 0 0
  outer loop
   vertex 40.3 112.25 33.7
   vertex 40.3 111.25 48.1
   vertex 40.3 112.25 49.1
  endloop
 endfacet
 facet normal -1 0 -0
  outer loop
   vertex 40.3 111.25 34.7
   vertex 40.3 112.25 33.7
   vertex 40.3 96.85 33.7
  endloop
 endfacet
 facet normal -1 -0 0
  outer loop
   vertex 40.3 111.25 34.7
   vertex 40.3 96.85 33.7
   vertex 40.3 97.85 34.7
  endloop
 endfacet
 facet normal -1 0 0
  outer loop
   vertex 40.3 111.25 48.1
   vertex 40.3 97.85 48.1
   vertex 40.3 96.85 49.1
  endloop
 endfacet
 facet normal -1 -0 0
  outer loop
   vertex 40.3 112.25 49.1
   vertex 40.3 111.25 48.1
   vertex 40.3 96.85 49.1
  endloop
 endfacet
 facet normal -1 -0 0
  outer loop
   vertex 40.3 97.85 34.7
   vertex 40.3 96.85 33.7
   vertex 40.3 96.85 49.1
  endloop
 endfacet
 facet normal -1 -0 -0
  outer loop
   vertex 40.3 97.85 48.1
   vertex 40.3 97.85 34.7
   vertex 40.3 96.85 49.1
  endloop
 endfacet
 facet normal 0 -1 0
  outer loop
   vertex 40.3 96.85 33.7
   vertex 42.7 96.85 33.7
   vertex 40.3 96.85 49.1
  endloop
 endfacet
 facet normal 0 -1 0
  outer loop
   vertex 40.3 96.85 49.1
   vertex 42.7 96.85 33.7
   vertex 42.7 96.85 49.1
  endloop
 endfacet
 facet normal 0 0 1
  outer loop
   vertex 40.3 112.25 49.1
   vertex 40.3 96.85 49.1
   vertex 42.7 96.85 49.1
  endloop
 endfacet
 facet normal 0 0 1
  outer loop
   vertex 42.7 112.25 49.1
   vertex 40.3 112.25 49.1
   vertex 42.7 96.85 49.1
  endloop
 endfacet
 facet normal 0 0 -1
  outer loop
   vertex 42.7 96.85 33.7
   vertex 40.3 96.85 33.7
   vertex 40.3 112.25 33.7
  endloop
 endfacet
 facet normal 0 0 -1
  outer loop
   vertex 42.7 96.85 33.7
   vertex 40.3 112.25 33.7
   vertex 42.7 112.25 33.7
  endloop
 endfacet
 facet normal 0 1 0
  outer loop
   vertex 40.3 112.25 49.1
   vertex 42.7 112.25 33.7
   vertex 40.3 112.25 33.7
  endloop
 endfacet
 facet normal 0 1 0
  outer loop
   vertex 42.7 112.25 49.1
   vertex 42.7 112.25 33.7
   vertex 40.3 112.25 49.1
  endloop
 endfacet
 facet normal 0 1 0
  outer loop
   vertex 42.7 97.85 48.1
   vertex 42.7 97.85 34.7
   vertex 40.3 97.85 34.7
  endloop
 endfacet
 facet normal 0 1 0
  outer loop
   vertex 42.7 97.85 48.1
   vertex 40.3 97.85 34.7
   vertex 40.3 97.85 48.1
  endloop
 endfacet
 facet normal 0 0 1
  outer loop
   vertex 42.7 111.25 34.7
   vertex 40.3 111.25 34.7
   vertex 40.3 97.85 34.7
  endloop
 endfacet
 facet normal 0 0 1
  outer loop
   vertex 42.7 111.25 34.7
   vertex 40.3 97.85 34.7
   vertex 42.7 97.85 34.7
  endloop
 endfacet
 facet normal 0 -1 0
  outer loop
   vertex 40.3 111.25 34.7
   vertex 42.7 111.25 34.7
   vertex 42.7 111.25 48.1
  endloop
 endfacet
 facet normal 0 -1 0
  outer loop
   vertex 40.3 111.25 48.1
   vertex 40.3 111.25 34.7
   vertex 42.7 111.25 48.1
  endloop
 endfacet
 facet normal 0 0 -1
  outer loop
   vertex 40.3 97.85 48.1
   vertex 40.3 111.25 48.1
   vertex 42.7 111.25 48.1
  endloop
 endfacet
 facet normal 0 0 -1
  outer loop
   vertex 42.7 97.85 48.1
   vertex 40.3 97.85 48.1
   vertex 42.7 111.25 48.1
  endloop
 endfacet
 facet normal 1 -0 0
  outer loop
   vertex 42.7 111.25 48.1
   vertex 42.7 112.25 33.7
   vertex 42.7 112.25 49.1
  endloop
 endfacet
 facet normal 1 0 0
  outer loop
   vertex 42.7 111.25 48.1
   vertex 42.7 111.25 34.7
   vertex 42.7 112.25 33.7
  endloop
 endfacet
 facet normal 1 0 0
  outer loop
   vertex 42.7 96.85 33.7
   vertex 42.7 112.25 33.7
   vertex 42.7 111.25 34.7
  endloop
 endfacet
 facet normal 1 -0 0
  outer loop
   vertex 42.7 97.85 34.7
   vertex 42.7 96.85 33.7
   vertex 42.7 111.25 34.7
  endloop
 endfacet
 facet normal 1 0 0
  outer loop
   vertex 42.7 96.85 49.1
   vertex 42.7 97.85 48.1
   vertex 42.7 111.25 48.1
  endloop
 endfacet
 facet normal 1 -0 0
  outer loop
   vertex 42.7 96.85 49.1
   vertex 42.7 111.25 48.1
   vertex 42.7 112.25 49.1
  endloop
 endfacet
 facet normal 1 0 0
  outer loop
   vertex 42.7 96.85 49.1
   vertex 42.7 96.85 33.7
   vertex 42.7 97.85 34.7
  endloop
 endfacet
 facet normal 1 0 0
  outer loop
   vertex 42.7 96.85 49.1
   vertex 42.7 97.85 34.7
   vertex 42.7 97.85 48.1
  endloop
 endfacet
 facet normal -1 0 0
  outer loop
   vertex 40.3 49.1 33.7
   vertex 40.3 33.7 33.7
   vertex 40.3 34.7 34.7
  endloop
 endfacet
 facet normal -1 -0 -0
  outer loop
   vertex 40.3 48.1 34.7
   vertex 40.3 49.1 33.7
   vertex 40.3 34.7 34.7
  endloop
 endfacet
 facet normal -1 0 0
  outer loop
   vertex 40.3 48.1 34.7
   vertex 40.3 48.1 48.1
   vertex 40.3 49.1 49.1
  endloop
 endfacet
 facet normal -1 0 0
  outer loop
   vertex 40.3 49.1 33.7
   vertex 40.3 48.1 34.7
   vertex 40.3 49.1 49.1
  endloop
 endfacet
 facet normal -1 0 0
  outer loop
   vertex 40.3 48.1 48.1
   vertex 40.3 34.7 48.1
   vertex 40.3 33.7 49.1
  endloop
 endfacet
 facet normal -1 -0 0
  outer loop
   vertex 40.3 49.1 49.1
   vertex 40.3 48.1 48.1
   vertex 40.3 33.7 49.1
  endloop
 endfacet
 facet normal -1 -0 0
  outer loop
   vertex 40.3 34.7 34.7
   vertex 40.3 33.7 33.7
   vertex 40.3 33.7 49.1
  endloop
 endfacet
 facet normal -1 -0 -0
  outer loop
   vertex 40.3 34.7 48.1
   vertex 40.3 34.7 34.7
   vertex 40.3 33.7 49.1
  endloop
 endfacet
 facet normal 0 -1 0
  outer loop
   vertex 40.3 33.7 33.7
   vertex 42.7 33.7 33.7
   vertex 40.3 33.7 49.1
  endloop
 endfacet
 facet normal 0 -1 0
  outer loop
   vertex 40.3 33.7 49.1
   vertex 42.7 33.7 33.7
   vertex 42.7 33.7 49.1
  endloop
 endfacet
 facet normal 0 0 1
  outer loop
   vertex 40.3 49.1 49.1
   vertex 40.3 33.7 49.1
   vertex 42.7 33.7 49.1
  endloop
 endfacet
 facet normal 0 0 1
  outer loop
   vertex 42.7 49.1 49.1
   vertex 40.3 49.1 49.1
   vertex 42.7 33.7 49.1
  endloop
 endfacet
 facet normal 0 0 -1
  outer loop
   vertex 42.7 33.7 33.7
   vertex 40.3 33.7 33.7
   vertex 40.3 49.1 33.7
  endloop
 endfacet
 facet normal 0 0 -1
  outer loop
   vertex 42.7 33.7 33.7
   vertex 40.3 49.1 33.7
   vertex 42.7 49.1 33.7
  endloop
 endfacet
 facet normal 0 1 0
  outer loop
   vertex 40.3 49.1 49.1
   vertex 42.7 49.1 33.7
   vertex 40.3 49.1 33.7
  endloop
 endfacet
 facet normal 0 1 0
  outer loop
   vertex 42.7 49.1 49.1
   vertex 42.7 49.1 33.7
   vertex 40.3 49.1 49.1
  endloop
 endfacet
 facet normal 0 1 0
  outer loop
   vertex 42.7 34.7 48.1
   vertex 42.7 34.7 34.7
   vertex 40.3 34.7 34.7
  endloop
 endfacet
 facet normal 0 1 0
  outer loop
   vertex 42.7 34.7 48.1
   vertex 40.3 34.7 34.7
   vertex 40.3 34.7 48.1
  endloop
 endfacet
 facet normal 0 0 1
  outer loop
   vertex 42.7 48.1 34.7
   vertex 40.3 48.1 34.7
   vertex 40.3 34.7 34.7
  endloop
 endfacet
 facet normal 0 0 1
  outer loop
   vertex 42.7 48.1 34.7
   vertex 40.3 34.7 34.7
   vertex 42.7 34.7 34.7
  endloop
 endfacet
 facet normal 0 -1 0
  outer loop
   vertex 40.3 48.1 34.7
   vertex 42.7 48.1 34.7
   vertex 42.7 48.1 48.1
  endloop
 endfacet
 facet normal 0 -1 0
  outer loop
   vertex 40.3 48.1 48.1
   vertex 40.3 48.1 34.7
   vertex 42.7 48.1 48.1
  endloop
 endfacet
 facet normal 0 0 -1
  outer loop
   vertex 40.3 34.7 48.1
   vertex 40.3 48.1 48.1
   vertex 42.7 48.1 48.1
  endloop
 endfacet
 facet normal 0 0 -1
  outer loop
   vertex 42.7 34.7 48.1
   vertex 40.3 34.7 48.1
   vertex 42.7 48.1 48.1
  endloop
 endfacet
 facet normal 1 -0 0
  outer loop
   vertex 42.7 48.1 48.1
   vertex 42.7 49.1 33.7
   vertex 42.7 49.1 49.1
  endloop
 endfacet
 facet normal 1 0 0
  outer loop
   vertex 42.7 48.1 48.1
   vertex 42.7 48.1 34.7
   vertex 42.7 49.1 33.7
  endloop
 endfacet
 facet normal 1 0 0
  outer loop
   vertex 42.7 34.7 34.7
   vertex 42.7 33.7 33.7
   vertex 42.7 49.1 33.7
  endloop
 endfacet
 facet normal 1 -0 0
  outer loop
   vertex 42.7 34.7 34.7
   vertex 42.7 49.1 33.7
   vertex 42.7 48.1 34.7
  endloop
 endfacet
 facet normal 1 0 0
  outer loop
   vertex 42.7 33.7 49.1
   vertex 42.7 34.7 48.1
   vertex 42.7 48.1 48.1
  endloop
 endfacet
 facet normal 1 -0 0
  outer loop
   vertex 42.7 33.7 49.1
   vertex 42.7 48.1 48.1
   vertex 42.7 49.1 49.1
  endloop
 endfacet
 facet normal 1 0 0
  outer loop
   vertex 42.7 33.7 49.1
   vertex 42.7 33.7 33.7
   vertex 42.7 34.7 34.7
  endloop
 endfacet
 facet normal 1 0 0
  outer loop
   vertex 42.7 33.7 49.1
   vertex 42.7 34.7 34.7
   vertex 42.7 34.7 48.1
  endloop
 endfacet
 facet normal -1 0 0
  outer loop
   vertex 40.3 81.5 33.7
   vertex 40.3 66.1 33.7
   vertex 40.3 67.1 34.7
  endloop
 endfacet
 facet normal -1 -0 -0
  outer loop
   vertex 40.3 80.5 34.7
   vertex 40.3 81.5 33.7
   vertex 40.3 67.1 34.7
  endloop
 endfacet
 facet normal -1 0 0
  outer loop
   vertex 40.3 80.5 34.7
   vertex 40.3 80.5 48.1
   vertex 40.3 81.5 49.1
  endloop
 endfacet
 facet normal -1 0 0
  outer loop
   vertex 40.3 81.5 33.7
   vertex 40.3 80.5 34.7
   vertex 40.3 81.5 49.1
  endloop
 endfacet
 facet normal -1 0 0
  outer loop
   vertex 40.3 80.5 48.1
   vertex 40.3 67.1 48.1
   vertex 40.3 66.1 49.1
  endloop
 endfacet
 facet normal -1 -0 0
  outer loop
   vertex 40.3 81.5 49.1
   vertex 40.3 80.5 48.1
   vertex 40.3 66.1 49.1
  endloop
 endfacet
 facet normal -1 -0 0
  outer loop
   vertex 40.3 67.1 34.7
   vertex 40.3 66.1 33.7
   vertex 40.3 66.1 49.1
  endloop
 endfacet
 facet normal -1 -0 -0
  outer loop
   vertex 40.3 67.1 48.1
   vertex 40.3 67.1 34.7
   vertex 40.3 66.1 49.1
  endloop
 endfacet
 facet normal 0 -1 0
  outer loop
   vertex 40.3 66.1 33.7
   vertex 42.7 66.1 33.7
   vertex 40.3 66.1 49.1
  endloop
 endfacet
 facet normal 0 -1 0
  outer loop
   vertex 40.3 66.1 49.1
   vertex 42.7 66.1 33.7
   vertex 42.7 66.1 49.1
  endloop
 endfacet
 facet normal 0 0 1
  outer loop
   vertex 40.3 81.5 49.1
   vertex 40.3 66.1 49.1
   vertex 42.7 66.1 49.1
  endloop
 endfacet
 facet normal 0 0 1
  outer loop
   vertex 42.7 81.5 49.1
   vertex 40.3 81.5 49.1
   vertex 42.7 66.1 49.1
  endloop
 endfacet
 facet normal 0 0 -1
  outer loop
   vertex 42.7 66.1 33.7
   vertex 40.3 66.1 33.7
   vertex 40.3 81.5 33.7
  endloop
 endfacet
 facet normal 0 0 -1
  outer loop
   vertex 42.7 66.1 33.7
   vertex 40.3 81.5 33.7
   vertex 42.7 81.5 33.7
  endloop
 endfacet
 facet normal 0 1 0
  outer loop
   vertex 40.3 81.5 49.1
   vertex 42.7 81.5 33.7
   vertex 40.3 81.5 33.7
  endloop
 endfacet
 facet normal 0 1 0
  outer loop
   vertex 42.7 81.5 49.1
   vertex 42.7 81.5 33.7
   vertex 40.3 81.5 49.1
  endloop
 endfacet
 facet normal 0 1 0
  outer loop
   vertex 42.7 67.1 48.1
   vertex 42.7 67.1 34.7
   vertex 40.3 67.1 34.7
  endloop
 endfacet
 facet normal 0 1 0
  outer loop
   vertex 42.7 67.1 48.1
   vertex 40.3 67.1 34.7
   vertex 40.3 67.1 48.1
  endloop
 endfacet
 facet normal 0 0 1
  outer loop
   vertex 42.7 80.5 34.7
   vertex 40.3 80.5 34.7
   vertex 40.3 67.1 34.7
  endloop
 endfacet
 facet normal 0 0 1
  outer loop
   vertex 42.7 80.5 34.7
   vertex 40.3 67.1 34.7
   vertex 42.7 67.1 34.7
  endloop
 endfacet
 facet normal 0 -1 0
  outer loop
   vertex 40.3 80.5 34.7
   vertex 42.7 80.5 34.7
   vertex 42.7 80.5 48.1
  endloop
 endfacet
 facet normal 0 -1 0
  outer loop
   vertex 40.3 80.5 48.1
   vertex 40.3 80.5 34.7
   vertex 42.7 80.5 48.1
  endloop
 endfacet
 facet normal 0 0 -1
  outer loop
   vertex 40.3 67.1 48.1
   vertex 40.3 80.5 48.1
   vertex 42.7 80.5 48.1
  endloop
 endfacet
 facet normal 0 0 -1
  outer loop
   vertex 42.7 67.1 48.1
   vertex 40.3 67.1 48.1
   vertex 42.7 80.5 48.1
  endloop
 endfacet
 facet normal 1 0 0
  outer loop
   vertex 42.7 67.1 34.7
   vertex 42.7 66.1 33.7
   vertex 42.7 81.5 33.7
  endloop
 endfacet
 facet normal 1 -0 0
  outer loop
   vertex 42.7 67.1 34.7
   vertex 42.7 81.5 33.7
   vertex 42.7 80.5 34.7
  endloop
 endfacet
 facet normal 1 0 0
  outer loop
   vertex 42.7 81.5 49.1
   vertex 42.7 80.5 34.7
   vertex 42.7 81.5 33.7
  endloop
 endfacet
 facet normal 1 -0 0
  outer loop
   vertex 42.7 80.5 48.1
   vertex 42.7 80.5 34.7
   vertex 42.7 81.5 49.1
  endloop
 endfacet
 facet normal 1 0 0
  outer loop
   vertex 42.7 66.1 49.1
   vertex 42.7 67.1 48.1
   vertex 42.7 80.5 48.1
  endloop
 endfacet
 facet normal 1 -0 0
  outer loop
   vertex 42.7 66.1 49.1
   vertex 42.7 80.5 48.1
   vertex 42.7 81.5 49.1
  endloop
 endfacet
 facet normal 1 0 0
  outer loop
   vertex 42.7 66.1 49.1
   vertex 42.7 66.1 33.7
   vertex 42.7 67.1 34.7
  endloop
 endfacet
 facet normal 1 0 0
  outer loop
   vertex 42.7 66.1 49.1
   vertex 42.7 67.1 34.7
   vertex 42.7 67.1 48.1
  endloop
 endfacet
 facet normal -1 0 0
  outer loop
   vertex 40.3 111.25 3.95
   vertex 40.3 111.25 17.35
   vertex 40.3 112.25 18.35
  endloop
 endfacet
 facet normal -1 0 0
  outer loop
   vertex 40.3 112.25 2.95
   vertex 40.3 111.25 3.95
   vertex 40.3 112.25 18.35
  endloop
 endfacet
 facet normal -1 0 -0
  outer loop
   vertex 40.3 111.25 3.95
   vertex 40.3 112.25 2.95
   vertex 40.3 96.85 2.95
  endloop
 endfacet
 facet normal -1 -0 0
  outer loop
   vertex 40.3 111.25 3.95
   vertex 40.3 96.85 2.95
   vertex 40.3 97.85 3.95
  endloop
 endfacet
 facet normal -1 0 0
  outer loop
   vertex 40.3 111.25 17.35
   vertex 40.3 97.85 17.35
   vertex 40.3 96.85 18.35
  endloop
 endfacet
 facet normal -1 -0 0
  outer loop
   vertex 40.3 112.25 18.35
   vertex 40.3 111.25 17.35
   vertex 40.3 96.85 18.35
  endloop
 endfacet
 facet normal -1 -0 0
  outer loop
   vertex 40.3 97.85 3.95
   vertex 40.3 96.85 2.95
   vertex 40.3 96.85 18.35
  endloop
 endfacet
 facet normal -1 -0 -0
  outer loop
   vertex 40.3 97.85 17.35
   vertex 40.3 97.85 3.95
   vertex 40.3 96.85 18.35
  endloop
 endfacet
 facet normal 0 -1 0
  outer loop
   vertex 40.3 96.85 2.95
   vertex 42.7 96.85 2.95
   vertex 42.7 96.85 18.35
  endloop
 endfacet
 facet normal 0 -1 0
  outer loop
   vertex 40.3 96.85 18.35
   vertex 40.3 96.85 2.95
   vertex 42.7 96.85 18.35
  endloop
 endfacet
 facet normal 0 0 1
  outer loop
   vertex 40.3 112.25 18.35
   vertex 40.3 96.85 18.35
   vertex 42.7 96.85 18.35
  endloop
 endfacet
 facet normal 0 0 1
  outer loop
   vertex 42.7 112.25 18.35
   vertex 40.3 112.25 18.35
   vertex 42.7 96.85 18.35
  endloop
 endfacet
 facet normal 0 0 -1
  outer loop
   vertex 42.7 96.85 2.95
   vertex 40.3 96.85 2.95
   vertex 40.3 112.25 2.95
  endloop
 endfacet
 facet normal 0 0 -1
  outer loop
   vertex 42.7 96.85 2.95
   vertex 40.3 112.25 2.95
   vertex 42.7 112.25 2.95
  endloop
 endfacet
 facet normal 0 1 0
  outer loop
   vertex 42.7 112.25 18.35
   vertex 42.7 112.25 2.95
   vertex 40.3 112.25 2.95
  endloop
 endfacet
 facet normal 0 1 0
  outer loop
   vertex 42.7 112.25 18.35
   vertex 40.3 112.25 2.95
   vertex 40.3 112.25 18.35
  endloop
 endfacet
 facet normal 0 1 0
  outer loop
   vertex 42.7 97.85 17.35
   vertex 42.7 97.85 3.95
   vertex 40.3 97.85 3.95
  endloop
 endfacet
 facet normal 0 1 0
  outer loop
   vertex 42.7 97.85 17.35
   vertex 40.3 97.85 3.95
   vertex 40.3 97.85 17.35
  endloop
 endfacet
 facet normal 0 0 1
  outer loop
   vertex 42.7 111.25 3.95
   vertex 40.3 111.25 3.95
   vertex 40.3 97.85 3.95
  endloop
 endfacet
 facet normal 0 0 1
  outer loop
   vertex 42.7 111.25 3.95
   vertex 40.3 97.85 3.95
   vertex 42.7 97.85 3.95
  endloop
 endfacet
 facet normal 0 -1 0
  outer loop
   vertex 40.3 111.25 3.95
   vertex 42.7 111.25 3.95
   vertex 42.7 111.25 17.35
  endloop
 endfacet
 facet normal 0 -1 0
  outer loop
   vertex 40.3 111.25 17.35
   vertex 40.3 111.25 3.95
   vertex 42.7 111.25 17.35
  endloop
 endfacet
 facet normal 0 0 -1
  outer loop
   vertex 40.3 97.85 17.35
   vertex 40.3 111.25 17.35
   vertex 42.7 111.25 17.35
  endloop
 endfacet
 facet normal 0 0 -1
  outer loop
   vertex 42.7 97.85 17.35
   vertex 40.3 97.85 17.35
   vertex 42.7 111.25 17.35
  endloop
 endfacet
 facet normal 1 0 0
  outer loop
   vertex 42.7 112.25 18.35
   vertex 42.7 111.25 3.95
   vertex 42.7 112.25 2.95
  endloop
 endfacet
 facet normal 1 -0 0
  outer loop
   vertex 42.7 111.25 17.35
   vertex 42.7 111.25 3.95
   vertex 42.7 112.25 18.35
  endloop
 endfacet
 facet normal 1 0 0
  outer loop
   vertex 42.7 96.85 2.95
   vertex 42.7 112.25 2.95
   vertex 42.7 111.25 3.95
  endloop
 endfacet
 facet normal 1 -0 0
  outer loop
   vertex 42.7 97.85 3.95
   vertex 42.7 96.85 2.95
   vertex 42.7 111.25 3.95
  endloop
 endfacet
 facet normal 1 0 0
  outer loop
   vertex 42.7 96.85 18.35
   vertex 42.7 97.85 17.35
   vertex 42.7 111.25 17.35
  endloop
 endfacet
 facet normal 1 -0 0
  outer loop
   vertex 42.7 96.85 18.35
   vertex 42.7 111.25 17.35
   vertex 42.7 112.25 18.35
  endloop
 endfacet
 facet normal 1 0 0
  outer loop
   vertex 42.7 96.85 18.35
   vertex 42.7 96.85 2.95
   vertex 42.7 97.85 3.95
  endloop
 endfacet
 facet normal 1 0 0
  outer loop
   vertex 42.7 96.85 18.35
   vertex 42.7 97.85 3.95
   vertex 42.7 97.85 17.35
  endloop
 endfacet
 facet normal -1 0 0
  outer loop
   vertex 40.3 18.35 66.1
   vertex 40.3 17.35 67.1
   vertex 40.3 18.35 81.5
  endloop
 endfacet
 facet normal -1 0 0
  outer loop
   vertex 40.3 18.35 81.5
   vertex 40.3 17.35 67.1
   vertex 40.3 17.35 80.5
  endloop
 endfacet
 facet normal -1 0 0
  outer loop
   vertex 40.3 18.35 66.1
   vertex 40.3 2.95 66.1
   vertex 40.3 3.95 67.1
  endloop
 endfacet
 facet normal -1 -0 -0
  outer loop
   vertex 40.3 17.35 67.1
   vertex 40.3 18.35 66.1
   vertex 40.3 3.95 67.1
  endloop
 endfacet
 facet normal -1 0 0
  outer loop
   vertex 40.3 17.35 80.5
   vertex 40.3 3.95 80.5
   vertex 40.3 2.95 81.5
  endloop
 endfacet
 facet normal -1 -0 0
  outer loop
   vertex 40.3 18.35 81.5
   vertex 40.3 17.35 80.5
   vertex 40.3 2.95 81.5
  endloop
 endfacet
 facet normal -1 -0 0
  outer loop
   vertex 40.3 3.95 67.1
   vertex 40.3 2.95 66.1
   vertex 40.3 2.95 81.5
  endloop
 endfacet
 facet normal -1 -0 -0
  outer loop
   vertex 40.3 3.95 80.5
   vertex 40.3 3.95 67.1
   vertex 40.3 2.95 81.5
  endloop
 endfacet
 facet normal 0 -1 0
  outer loop
   vertex 40.3 2.95 66.1
   vertex 42.7 2.95 66.1
   vertex 40.3 2.95 81.5
  endloop
 endfacet
 facet normal 0 -1 0
  outer loop
   vertex 40.3 2.95 81.5
   vertex 42.7 2.95 66.1
   vertex 42.7 2.95 81.5
  endloop
 endfacet
 facet normal 0 0 1
  outer loop
   vertex 42.7 18.35 81.5
   vertex 40.3 18.35 81.5
   vertex 40.3 2.95 81.5
  endloop
 endfacet
 facet normal 0 0 1
  outer loop
   vertex 42.7 18.35 81.5
   vertex 40.3 2.95 81.5
   vertex 42.7 2.95 81.5
  endloop
 endfacet
 facet normal 0 0 -1
  outer loop
   vertex 40.3 2.95 66.1
   vertex 40.3 18.35 66.1
   vertex 42.7 18.35 66.1
  endloop
 endfacet
 facet normal 0 0 -1
  outer loop
   vertex 42.7 2.95 66.1
   vertex 40.3 2.95 66.1
   vertex 42.7 18.35 66.1
  endloop
 endfacet
 facet normal 0 1 0
  outer loop
   vertex 40.3 18.35 81.5
   vertex 42.7 18.35 66.1
   vertex 40.3 18.35 66.1
  endloop
 endfacet
 facet normal 0 1 0
  outer loop
   vertex 42.7 18.35 81.5
   vertex 42.7 18.35 66.1
   vertex 40.3 18.35 81.5
  endloop
 endfacet
 facet normal 0 1 0
  outer loop
   vertex 42.7 3.95 80.5
   vertex 42.7 3.95 67.1
   vertex 40.3 3.95 67.1
  endloop
 endfacet
 facet normal 0 1 0
  outer loop
   vertex 42.7 3.95 80.5
   vertex 40.3 3.95 67.1
   vertex 40.3 3.95 80.5
  endloop
 endfacet
 facet normal 0 0 1
  outer loop
   vertex 42.7 17.35 67.1
   vertex 40.3 17.35 67.1
   vertex 40.3 3.95 67.1
  endloop
 endfacet
 facet normal 0 0 1
  outer loop
   vertex 42.7 17.35 67.1
   vertex 40.3 3.95 67.1
   vertex 42.7 3.95 67.1
  endloop
 endfacet
 facet normal 0 -1 0
  outer loop
   vertex 40.3 17.35 67.1
   vertex 42.7 17.35 67.1
   vertex 42.7 17.35 80.5
  endloop
 endfacet
 facet normal 0 -1 0
  outer loop
   vertex 40.3 17.35 80.5
   vertex 40.3 17.35 67.1
   vertex 42.7 17.35 80.5
  endloop
 endfacet
 facet normal 0 0 -1
  outer loop
   vertex 40.3 3.95 80.5
   vertex 40.3 17.35 80.5
   vertex 42.7 17.35 80.5
  endloop
 endfacet
 facet normal 0 0 -1
  outer loop
   vertex 42.7 3.95 80.5
   vertex 40.3 3.95 80.5
   vertex 42.7 17.35 80.5
  endloop
 endfacet
 facet normal 1 0 0
  outer loop
   vertex 42.7 18.35 81.5
   vertex 42.7 17.35 67.1
   vertex 42.7 18.35 66.1
  endloop
 endfacet
 facet normal 1 -0 0
  outer loop
   vertex 42.7 17.35 80.5
   vertex 42.7 17.35 67.1
   vertex 42.7 18.35 81.5
  endloop
 endfacet
 facet normal 1 0 0
  outer loop
   vertex 42.7 3.95 67.1
   vertex 42.7 2.95 66.1
   vertex 42.7 18.35 66.1
  endloop
 endfacet
 facet normal 1 -0 0
  outer loop
   vertex 42.7 3.95 67.1
   vertex 42.7 18.35 66.1
   vertex 42.7 17.35 67.1
  endloop
 endfacet
 facet normal 1 0 0
  outer loop
   vertex 42.7 2.95 81.5
   vertex 42.7 3.95 80.5
   vertex 42.7 17.35 80.5
  endloop
 endfacet
 facet normal 1 -0 0
  outer loop
   vertex 42.7 2.95 81.5
   vertex 42.7 17.35 80.5
   vertex 42.7 18.35 81.5
  endloop
 endfacet
 facet normal 1 0 0
  outer loop
   vertex 42.7 2.95 81.5
   vertex 42.7 2.95 66.1
   vertex 42.7 3.95 67.1
  endloop
 endfacet
 facet normal 1 0 0
  outer loop
   vertex 42.7 2.95 81.5
   vertex 42.7 3.95 67.1
   vertex 42.7 3.95 80.5
  endloop
 endfacet
endsolid block3
